<svg width="427" height="271" xmlns="http://www.w3.org/2000/svg" xmlns:xlink="http://www.w3.org/1999/xlink" xml:space="preserve" overflow="hidden"><defs><clipPath id="clip0"><rect x="265" y="114" width="427" height="271"/></clipPath></defs><g clip-path="url(#clip0)" transform="translate(-265 -114)"><path d="M426 250C426 178.203 484.203 120 556 120 627.797 120 686 178.203 686 250 686 321.797 627.797 380 556 380 484.203 380 426 321.797 426 250Z" stroke="#000000" stroke-width="10.3125" stroke-linecap="butt" stroke-linejoin="miter" stroke-miterlimit="8" stroke-opacity="1" fill="none" fill-rule="evenodd"/><text fill="#000000" fill-opacity="1" font-family="Calibri,Calibri_MSFontService,sans-serif" font-style="normal" font-variant="normal" font-weight="400" font-stretch="normal" font-size="83" text-anchor="start" direction="ltr" writing-mode="lr-tb" unicode-bidi="normal" text-decoration="none" transform="matrix(1 0 0 1 513.029 278)">q0</text><path d="M269.5 248.781 423.199 248.782 423.199 252.219 269.5 252.219ZM396.565 232.974 426.61 250.5 396.565 268.027C395.745 268.505 394.693 268.228 394.214 267.408 393.736 266.588 394.013 265.536 394.833 265.057L422.333 249.016 422.333 251.985 394.833 235.943C394.013 235.465 393.736 234.413 394.215 233.593 394.693 232.773 395.745 232.496 396.565 232.974Z" fill="#000000" fill-rule="nonzero" fill-opacity="1"/></g></svg>