<svg width="285" height="284" xmlns="http://www.w3.org/2000/svg" xmlns:xlink="http://www.w3.org/1999/xlink" xml:space="preserve" overflow="hidden"><defs><clipPath id="clip0"><rect x="407" y="453" width="285" height="284"/></clipPath></defs><g clip-path="url(#clip0)" transform="translate(-407 -453)"><path d="M408.101 595 408.827 580.61 410.963 566.619 414.437 553.108 419.177 540.155 425.113 527.834 432.171 516.216 440.28 505.372 449.37 495.37 459.372 486.28 470.216 478.171 481.834 471.113 494.155 465.177 507.108 460.437 520.618 456.963 534.61 454.827 549 454.101 563.39 454.827 577.381 456.963 590.892 460.437 603.845 465.177 616.166 471.113 627.784 478.171 638.628 486.28 648.63 495.37 657.72 505.372 665.829 516.216 672.887 527.834 678.823 540.155 683.563 553.108 687.037 566.619 689.173 580.61 689.899 595 689.173 609.39 687.037 623.382 683.563 636.892 678.823 649.845 672.887 662.166 665.829 673.784 657.72 684.628 648.63 694.63 638.628 703.72 627.784 711.829 616.166 718.887 603.845 724.823 590.892 729.563 577.381 733.037 563.39 735.173 549 735.899 534.61 735.173 520.618 733.037 507.108 729.563 494.155 724.823 481.834 718.887 470.216 711.829 459.372 703.72 449.37 694.63 440.28 684.628 432.171 673.784 425.113 662.166 419.177 649.845 414.437 636.892 410.963 623.382 408.827 609.39ZM416.057 608.658 418.082 621.927 421.375 634.736 425.87 647.016 431.498 658.699 438.192 669.717 445.884 680.004 454.507 689.492 463.996 698.116 474.283 705.808 485.301 712.502 496.984 718.13 509.264 722.625 522.073 725.918 535.342 727.943 549 728.633 562.658 727.943 575.927 725.918 588.736 722.625 601.016 718.13 612.699 712.502 623.717 705.808 634.004 698.116 643.492 689.492 652.116 680.004 659.808 669.717 666.502 658.699 672.13 647.016 676.625 634.736 679.918 621.927 681.943 608.658 682.633 595 681.943 581.342 679.918 568.073 676.625 555.264 672.13 542.984 666.502 531.301 659.808 520.283 652.116 509.996 643.492 500.508 634.004 491.884 623.717 484.192 612.699 477.498 601.016 471.87 588.736 467.375 575.927 464.082 562.658 462.057 549 461.367 535.342 462.057 522.073 464.082 509.264 467.375 496.984 471.87 485.301 477.498 474.283 484.192 463.996 491.884 454.507 500.508 445.884 509.996 438.192 520.283 431.498 531.301 425.87 542.984 421.375 555.264 418.082 568.073 416.057 581.342 415.367 595ZM422.633 595 423.286 582.074 425.201 569.528 428.314 557.42 432.562 545.812 437.883 534.768 444.212 524.349 451.488 514.62 459.645 505.645 468.62 497.488 478.349 490.212 488.768 483.883 499.812 478.562 511.42 474.314 523.528 471.201 536.074 469.286 549 468.633 561.926 469.286 574.472 471.201 586.58 474.314 598.187 478.562 609.232 483.883 619.651 490.212 629.38 497.488 638.355 505.645 646.512 514.62 653.788 524.349 660.117 534.768 665.438 545.812 669.686 557.42 672.799 569.528 674.714 582.074 675.367 595 674.714 607.926 672.799 620.472 669.686 632.58 665.438 644.188 660.117 655.232 653.788 665.651 646.512 675.38 638.355 684.355 629.38 692.512 619.651 699.788 609.232 706.117 598.188 711.438 586.58 715.686 574.472 718.799 561.926 720.714 549 721.367 536.074 720.714 523.528 718.799 511.42 715.686 499.812 711.438 488.768 706.117 478.349 699.788 468.62 692.512 459.645 684.355 451.488 675.38 444.212 665.651 437.883 655.232 432.562 644.188 428.314 632.58 425.201 620.472 423.286 607.926ZM430.515 607.193 432.32 619.018 435.253 630.424 439.255 641.359 444.268 651.765 450.233 661.585 457.091 670.756 464.782 679.218 473.244 686.909 482.415 693.767 492.235 699.732 502.641 704.745 513.576 708.747 524.982 711.68 536.807 713.485 549 714.101 561.193 713.485 573.018 711.68 584.424 708.747 595.359 704.745 605.765 699.732 615.585 693.767 624.756 686.909 633.218 679.218 640.909 670.756 647.767 661.585 653.732 651.766 658.745 641.359 662.747 630.424 665.68 619.018 667.485 607.193 668.101 595 667.485 582.807 665.68 570.982 662.747 559.576 658.745 548.641 653.732 538.235 647.767 528.415 640.909 519.244 633.218 510.782 624.756 503.091 615.585 496.233 605.765 490.268 595.359 485.255 584.424 481.253 573.017 478.32 561.193 476.515 549 475.899 536.807 476.515 524.982 478.32 513.576 481.253 502.641 485.255 492.235 490.268 482.415 496.233 473.244 503.091 464.782 510.782 457.091 519.244 450.233 528.415 444.268 538.235 439.255 548.641 435.253 559.576 432.32 570.982 430.515 582.807 429.899 595Z" fill="#000000" fill-rule="nonzero" fill-opacity="1"/><text fill="#000000" fill-opacity="1" font-family="Calibri,Calibri_MSFontService,sans-serif" font-style="normal" font-variant="normal" font-weight="400" font-stretch="normal" font-size="83" text-anchor="start" direction="ltr" writing-mode="lr-tb" unicode-bidi="normal" text-decoration="none" transform="matrix(1 0 0 1 506.034 622)">q1</text></g></svg>